<mxfile host="app.diagrams.net" agent="Mozilla/5.0 (Windows NT 10.0; Win64; x64) AppleWebKit/537.36 (KHTML, like Gecko) Chrome/132.0.0.0 Safari/537.36 Edg/132.0.0.0" version="26.0.10" pages="2">
  <diagram name="Page-1" id="nBhH25VhKMmMvL3l0HT1">
    <mxGraphModel dx="1426" dy="781" grid="1" gridSize="10" guides="1" tooltips="1" connect="1" arrows="1" fold="1" page="1" pageScale="1" pageWidth="1169" pageHeight="827" math="0" shadow="0">
      <root>
        <mxCell id="0" />
        <mxCell id="1" parent="0" />
        <mxCell id="TdxjPuL3g79mjsh6RT93-1" value="Users" style="verticalLabelPosition=bottom;sketch=0;html=1;fillColor=#A153A0;strokeColor=#ffffff;verticalAlign=top;align=center;points=[[0,0.5,0],[0.125,0.25,0],[0.25,0,0],[0.5,0,0],[0.75,0,0],[0.875,0.25,0],[1,0.5,0],[0.875,0.75,0],[0.75,1,0],[0.5,1,0],[0.125,0.75,0]];pointerEvents=1;shape=mxgraph.cisco_safe.compositeIcon;bgIcon=ellipse;resIcon=mxgraph.cisco_safe.design.users;" vertex="1" parent="1">
          <mxGeometry x="60" y="102" width="50" height="50" as="geometry" />
        </mxCell>
        <mxCell id="TdxjPuL3g79mjsh6RT93-2" value="BCP Form" style="html=1;whiteSpace=wrap;strokeColor=none;fillColor=#0079D6;labelPosition=center;verticalLabelPosition=middle;verticalAlign=top;align=center;fontSize=12;outlineConnect=0;spacingTop=-6;fontColor=#FFFFFF;sketch=0;shape=mxgraph.sitemap.form;" vertex="1" parent="1">
          <mxGeometry x="240" y="92" width="120" height="70" as="geometry" />
        </mxCell>
        <mxCell id="TdxjPuL3g79mjsh6RT93-4" value="Approver" style="sketch=0;pointerEvents=1;shadow=0;dashed=0;html=1;strokeColor=none;fillColor=#505050;labelPosition=center;verticalLabelPosition=bottom;verticalAlign=top;outlineConnect=0;align=center;shape=mxgraph.office.users.approver;" vertex="1" parent="1">
          <mxGeometry x="720" y="82" width="70" height="62.5" as="geometry" />
        </mxCell>
        <mxCell id="TdxjPuL3g79mjsh6RT93-9" value="" style="shape=singleArrow;whiteSpace=wrap;html=1;arrowWidth=0.4;arrowSize=0.4;verticalAlign=top;fillColor=#505050;strokeColor=none;sketch=0;pointerEvents=1;shadow=0;dashed=0;" vertex="1" parent="1">
          <mxGeometry x="375" y="97" width="80" height="60" as="geometry" />
        </mxCell>
        <mxCell id="TdxjPuL3g79mjsh6RT93-10" value="" style="shape=singleArrow;whiteSpace=wrap;html=1;arrowWidth=0.4;arrowSize=0.4;verticalAlign=top;fillColor=#505050;strokeColor=none;sketch=0;pointerEvents=1;shadow=0;dashed=0;" vertex="1" parent="1">
          <mxGeometry x="140" y="92" width="80" height="60" as="geometry" />
        </mxCell>
        <mxCell id="TdxjPuL3g79mjsh6RT93-13" value="&lt;h3&gt;&lt;font style=&quot;color: rgb(255, 255, 255);&quot;&gt;Approved&lt;/font&gt;&lt;/h3&gt;" style="shape=singleArrow;whiteSpace=wrap;html=1;arrowWidth=0.4;arrowSize=0.4;verticalAlign=top;fillColor=#505050;strokeColor=none;sketch=0;pointerEvents=1;shadow=0;dashed=0;" vertex="1" parent="1">
          <mxGeometry x="870" y="279" width="90" height="60" as="geometry" />
        </mxCell>
        <mxCell id="TdxjPuL3g79mjsh6RT93-14" value="Scheduled Job" style="image;sketch=0;aspect=fixed;html=1;points=[];align=center;fontSize=12;image=img/lib/mscae/SchedulerJobCollection.svg;" vertex="1" parent="1">
          <mxGeometry x="830" y="450" width="81.4" height="70" as="geometry" />
        </mxCell>
        <mxCell id="TdxjPuL3g79mjsh6RT93-17" value="" style="shape=singleArrow;whiteSpace=wrap;html=1;arrowWidth=0.4;arrowSize=0.4;verticalAlign=top;fillColor=#505050;strokeColor=none;sketch=0;pointerEvents=1;shadow=0;dashed=0;rotation=-210;" vertex="1" parent="1">
          <mxGeometry x="940" y="414.65" width="115.33" height="58.35" as="geometry" />
        </mxCell>
        <mxCell id="p6sxfPXKa_m8IWls4KXt-1" value="Data Saved in XML FIle" style="shape=image;html=1;verticalAlign=top;verticalLabelPosition=bottom;labelBackgroundColor=#ffffff;imageAspect=0;aspect=fixed;image=https://cdn1.iconfinder.com/data/icons/bootstrap-vol-3/16/filetype-xml-128.png" vertex="1" parent="1">
          <mxGeometry x="470" y="72" width="128" height="128" as="geometry" />
        </mxCell>
        <mxCell id="p6sxfPXKa_m8IWls4KXt-2" value="" style="shape=singleArrow;whiteSpace=wrap;html=1;arrowWidth=0.4;arrowSize=0.4;verticalAlign=top;fillColor=#505050;strokeColor=none;sketch=0;pointerEvents=1;shadow=0;dashed=0;" vertex="1" parent="1">
          <mxGeometry x="610" y="92" width="80" height="60" as="geometry" />
        </mxCell>
        <mxCell id="p6sxfPXKa_m8IWls4KXt-4" value="File Moved to Approved Folder" style="shape=image;html=1;verticalAlign=top;verticalLabelPosition=bottom;labelBackgroundColor=#ffffff;imageAspect=0;aspect=fixed;image=https://cdn1.iconfinder.com/data/icons/bootstrap-vol-3/16/filetype-xml-128.png" vertex="1" parent="1">
          <mxGeometry x="966.7" y="245" width="128" height="128" as="geometry" />
        </mxCell>
        <mxCell id="p6sxfPXKa_m8IWls4KXt-5" value="&lt;h2&gt;&lt;b style=&quot;background-color: light-dark(rgb(102, 155, 240), rgb(255, 255, 255));&quot;&gt;Approve/Reject&lt;/b&gt;&lt;/h2&gt;" style="rhombus;whiteSpace=wrap;html=1;fillColor=#1ba1e2;fontColor=#ffffff;strokeColor=#006EAF;" vertex="1" parent="1">
          <mxGeometry x="673" y="239" width="185" height="140" as="geometry" />
        </mxCell>
        <mxCell id="p6sxfPXKa_m8IWls4KXt-11" value="File Moved to Rejected Folder" style="shape=image;html=1;verticalAlign=top;verticalLabelPosition=bottom;labelBackgroundColor=#ffffff;imageAspect=0;aspect=fixed;image=https://cdn1.iconfinder.com/data/icons/bootstrap-vol-3/16/filetype-xml-128.png" vertex="1" parent="1">
          <mxGeometry x="442" y="239" width="128" height="128" as="geometry" />
        </mxCell>
        <mxCell id="p6sxfPXKa_m8IWls4KXt-13" value="" style="shape=singleArrow;whiteSpace=wrap;html=1;arrowWidth=0.4;arrowSize=0.4;verticalAlign=top;fillColor=#505050;strokeColor=none;sketch=0;pointerEvents=1;shadow=0;dashed=0;rotation=-180;" vertex="1" parent="1">
          <mxGeometry x="730" y="473" width="75" height="60" as="geometry" />
        </mxCell>
        <mxCell id="p6sxfPXKa_m8IWls4KXt-14" value="&lt;font style=&quot;color: light-dark(rgb(255, 250, 250), rgb(237, 237, 237));&quot;&gt;Rejected&lt;/font&gt;" style="html=1;shadow=0;dashed=0;align=center;verticalAlign=middle;shape=mxgraph.arrows2.arrow;dy=0.6;dx=40;flipH=1;notch=0;fillColor=#505050;fontStyle=1" vertex="1" parent="1">
          <mxGeometry x="570" y="274" width="90" height="70" as="geometry" />
        </mxCell>
        <mxCell id="p6sxfPXKa_m8IWls4KXt-16" value="" style="shape=singleArrow;whiteSpace=wrap;html=1;arrowWidth=0.4;arrowSize=0.4;verticalAlign=top;fillColor=#505050;strokeColor=none;sketch=0;pointerEvents=1;shadow=0;dashed=0;rotation=90;" vertex="1" parent="1">
          <mxGeometry x="848.1" y="552.9" width="45.2" height="60" as="geometry" />
        </mxCell>
        <mxCell id="p6sxfPXKa_m8IWls4KXt-24" value="" style="shape=singleArrow;whiteSpace=wrap;html=1;arrowWidth=0.4;arrowSize=0.4;verticalAlign=top;fillColor=#505050;strokeColor=none;sketch=0;pointerEvents=1;shadow=0;dashed=0;" vertex="1" parent="1">
          <mxGeometry x="220" y="684" width="80" height="60" as="geometry" />
        </mxCell>
        <mxCell id="p6sxfPXKa_m8IWls4KXt-25" value="Apriso DB" style="image;aspect=fixed;perimeter=ellipsePerimeter;html=1;align=center;shadow=0;dashed=0;spacingTop=3;image=img/lib/active_directory/database.svg;" vertex="1" parent="1">
          <mxGeometry x="570" y="684" width="90.54" height="67" as="geometry" />
        </mxCell>
        <mxCell id="p6sxfPXKa_m8IWls4KXt-26" value="&lt;b&gt;&lt;font style=&quot;color: light-dark(rgb(252, 248, 248), rgb(237, 237, 237));&quot;&gt;PO Stop&lt;/font&gt;&lt;/b&gt;" style="shape=singleArrow;whiteSpace=wrap;html=1;arrowWidth=0.5666666666666667;arrowSize=0.44;verticalAlign=middle;fillColor=#505050;strokeColor=none;sketch=0;pointerEvents=1;shadow=0;dashed=0;rotation=0;" vertex="1" parent="1">
          <mxGeometry x="470" y="684" width="75" height="60" as="geometry" />
        </mxCell>
        <mxCell id="p6sxfPXKa_m8IWls4KXt-27" value="&lt;b&gt;Step 2&lt;/b&gt;" style="rounded=1;whiteSpace=wrap;html=1;" vertex="1" parent="1">
          <mxGeometry x="35" y="600" width="120" height="40" as="geometry" />
        </mxCell>
        <mxCell id="p6sxfPXKa_m8IWls4KXt-28" value="File in Approved Folder" style="shape=image;html=1;verticalAlign=top;verticalLabelPosition=bottom;labelBackgroundColor=#ffffff;imageAspect=0;aspect=fixed;image=https://cdn1.iconfinder.com/data/icons/bootstrap-vol-3/16/filetype-xml-128.png" vertex="1" parent="1">
          <mxGeometry x="70" y="650" width="128" height="128" as="geometry" />
        </mxCell>
        <mxCell id="p6sxfPXKa_m8IWls4KXt-29" value="Immediate Job&amp;nbsp;" style="image;aspect=fixed;html=1;points=[];align=center;fontSize=12;image=img/lib/azure2/iot/Stream_Analytics_Jobs.svg;" vertex="1" parent="1">
          <mxGeometry x="320" y="668" width="107.86" height="92" as="geometry" />
        </mxCell>
        <mxCell id="p6sxfPXKa_m8IWls4KXt-30" value="&lt;b&gt;Step 1&lt;/b&gt;" style="rounded=1;whiteSpace=wrap;html=1;" vertex="1" parent="1">
          <mxGeometry x="35" y="42" width="120" height="40" as="geometry" />
        </mxCell>
        <mxCell id="p6sxfPXKa_m8IWls4KXt-31" value="Inbound Folder" style="image;html=1;image=img/lib/clip_art/general/Empty_Folder_128x128.png" vertex="1" parent="1">
          <mxGeometry x="625" y="458" width="80" height="80" as="geometry" />
        </mxCell>
        <mxCell id="p6sxfPXKa_m8IWls4KXt-32" value="Archive" style="image;aspect=fixed;html=1;points=[];align=center;fontSize=12;image=img/lib/azure2/general/Folder_Blank.svg;" vertex="1" parent="1">
          <mxGeometry x="841.2" y="616" width="69" height="56.00000000000001" as="geometry" />
        </mxCell>
        <mxCell id="p6sxfPXKa_m8IWls4KXt-33" value="" style="shape=singleArrow;whiteSpace=wrap;html=1;arrowWidth=0.4;arrowSize=0.4;verticalAlign=top;fillColor=#505050;strokeColor=none;sketch=0;pointerEvents=1;shadow=0;dashed=0;rotation=90;" vertex="1" parent="1">
          <mxGeometry x="731" y="170" width="59" height="60" as="geometry" />
        </mxCell>
        <mxCell id="p6sxfPXKa_m8IWls4KXt-35" value="" style="shape=singleArrow;whiteSpace=wrap;html=1;arrowWidth=0.4;arrowSize=0.4;verticalAlign=top;fillColor=#505050;strokeColor=none;sketch=0;pointerEvents=1;shadow=0;dashed=0;rotation=15;" vertex="1" parent="1">
          <mxGeometry x="628.85" y="397.35" width="172.76" height="40" as="geometry" />
        </mxCell>
      </root>
    </mxGraphModel>
  </diagram>
  <diagram id="7qwtJV8fNxw4Bqfkz8SE" name="Page-2">
    <mxGraphModel dx="1426" dy="781" grid="1" gridSize="10" guides="1" tooltips="1" connect="1" arrows="1" fold="1" page="1" pageScale="1" pageWidth="1169" pageHeight="827" math="0" shadow="0">
      <root>
        <mxCell id="0" />
        <mxCell id="1" parent="0" />
      </root>
    </mxGraphModel>
  </diagram>
</mxfile>
